:SAMPLES-PER-SECOND 30
:FRAME-RANGE 1-2045
:FULLY-SPECIFIED
:DEGREES
703
root  -45.2237 35.3794 60.9121 -175.24 -33.6834 173.656
RightUpLeg  -36.1786 -15.478 15.727
RightLeg  24.3908 -13.9519 -7.02957
RightFoot  -0.919161 1.88756 -20.5087
RightToes  5.82063e-011 0 -3.6325e-017
Spine  19.1863 -2.95421 2.92408
Spine1  -1.8752 -3.98249 6.92074
HEad  -14.3988 -37.1785 9.24041
LeftShoulder1  1.48027 -1.86806 -21.1634
LeftArm  -0.244169 -6.07658 -32.3827
LeftForeArm  -5.10803 -63.1586 -23.724
LeftHand  -0.430493 7.64257 -18.4627
RightShoulder  4.95003 6.93565 41.277
RightArm  4.43853 -2.61387 14.6056
RightForeArm  -15.1852 67.9266 31.8616
RightHand  0.479211 -2.16364 17.849
LeftUpLeg  1.91834 28.3659 2.30775
LeftLeg  50.91 -3.05956 -3.57641
LeftFoot  -12.5656 -0.183775 -23.8702
LeftToes  -3.90176e-010 -2.48536e-010 1.05482e-011
704
root  -46.7271 34.5928 60.2091 -177.988 -29.9938 176.278
RightUpLeg  -37.9393 -7.10673 14.3416
RightLeg  37.6873 -16.7863 -13.7055
RightFoot  -5.71245 0.780798 -16.5241
RightToes  5.82063e-011 0 -3.6325e-017
Spine  22.021 -2.84533 6.57637
Spine1  -2.14494 -2.58022 5.93885
HEad  -16.4524 -36.2448 10.3587
LeftShoulder1  1.45524 -1.95505 -20.2056
LeftArm  -1.19765 -8.60172 -32.7337
LeftForeArm  -4.34131 -63.5616 -24.1218
LeftHand  -0.412191 7.56258 -18.2339
RightShoulder  5.65682 8.13685 42.3719
RightArm  2.46637 -2.17072 13.8173
RightForeArm  -14.9993 67.8752 31.7459
RightHand  0.516944 -1.91454 17.7573
LeftUpLeg  -2.15749 29.0072 5.331
LeftLeg  63.4871 -2.60435 -5.04357
LeftFoot  1.10642 2.46357 -22.3976
LeftToes  -3.90176e-010 -2.48536e-010 1.05482e-011
705
root  -48.0643 33.8372 59.6703 178.782 -26.7839 178.989
RightUpLeg  -38.2252 -6.1923 15.8899
RightLeg  46.1917 -14.4243 -15.8471
RightFoot  -10.2183 0.0778894 -14.8465
RightToes  5.82063e-011 0 -3.6325e-017
Spine  24.8441 -3.15084 9.68005
Spine1  -0.577011 -2.0183 6.06992
HEad  -17.0537 -34.5979 10.8741
LeftShoulder1  1.46008 -2.171 -19.2105
LeftArm  -2.27371 -11.1378 -32.1503
LeftForeArm  -5.19429 -62.7605 -23.2774
LeftHand  -0.384629 7.40549 -18.1685
RightShoulder  6.99794 10.5724 43.3932
RightArm  0.726627 -0.902448 13.4707
RightForeArm  -16.7107 66.804 29.9911
RightHand  0.556444 -1.59477 17.3877
LeftUpLeg  -6.6914 26.8482 7.53709
LeftLeg  74.9489 -1.35398 -4.66533
LeftFoot  3.95876 2.36939 -17.6996
LeftToes  -3.90176e-010 -2.48536e-010 1.05482e-011
706
root  -49.4527 33.5863 58.9852 177.511 -23.7338 -179.436
RightUpLeg  -37.5116 -6.33396 16.3947
RightLeg  50.5408 -11.9095 -15.4085
RightFoot  -13.5648 -0.35655 -13.5975
RightToes  5.82063e-011 0 -3.6325e-017
Spine  26.4357 -2.88061 11.4946
Spine1  -0.512379 -1.29861 6.62023
HEad  -15.2474 -33.5681 9.45557
LeftShoulder1  1.44638 -2.24387 -18.603
LeftArm  -1.75571 -13.5263 -31.5557
LeftForeArm  -8.04661 -60.6658 -21.3718
LeftHand  -0.367149 7.26832 -18.4675
RightShoulder  7.27644 11.0494 43.6521
RightArm  0.256185 0.495576 14.2773
RightForeArm  -17.4184 65.9445 28.665
RightHand  0.579131 -1.32492 16.8216
LeftUpLeg  -12.6717 23.9395 8.41715
LeftLeg  82.7969 -0.304989 -0.473596
LeftFoot  0.648631 1.59753 -15.1774
LeftToes  -3.90176e-010 -2.48536e-010 1.05482e-011
707
root  -50.8298 33.6338 58.2841 177.91 -19.8854 -179.173
RightUpLeg  -36.7774 -4.6936 15.2853
RightLeg  53.0601 -10.0116 -14.344
RightFoot  -15.71 -0.564984 -11.9866
RightToes  5.82063e-011 0 -3.6325e-017
Spine  26.6894 -2.31141 12.1353
Spine1  -0.854316 -0.444347 6.07264
HEad  -14.6581 -32.4129 9.19954
LeftShoulder1  1.39884 -2.12693 -18.2551
LeftArm  -1.88337 -13.5836 -30.0843
LeftForeArm  -9.36005 -60.6438 -21.4674
LeftHand  -0.430255 7.63306 -18.5271
RightShoulder  7.38096 10.9461 44.6448
RightArm  0.622497 1.18077 14.5881
RightForeArm  -16.6458 66.4342 29.3729
RightHand  0.513199 -1.64916 16.3222
LeftUpLeg  -18.9787 22.0109 8.50625
LeftLeg  85.8664 -0.173369 2.33904
LeftFoot  -2.14092 0.973628 -11.9088
LeftToes  -3.90176e-010 -2.48536e-010 1.05482e-011
708
root  -52.1715 33.9082 57.5963 179.23 -15.9844 -179.93
RightUpLeg  -36.1339 -2.42354 12.8434
RightLeg  54.1949 -8.47753 -12.8116
RightFoot  -17.0092 -0.606733 -9.90986
RightToes  5.82063e-011 0 -3.6325e-017
Spine  25.9391 -1.73082 11.177
Spine1  -0.606687 -0.241486 5.79087
HEad  -14.3281 -30.6246 9.16023
LeftShoulder1  1.34295 -1.97678 -17.8876
LeftArm  -2.29381 -11.9139 -28.2238
LeftForeArm  -9.43991 -61.2542 -22.0754
LeftHand  -0.490186 7.96245 -18.6861
RightShoulder  7.90373 11.711 45.4294
RightArm  1.33787 0.671866 14.8081
RightForeArm  -16.2126 66.8285 29.9871
RightHand  0.446598 -2.09289 16.3041
LeftUpLeg  -25.0781 19.7278 7.8316
LeftLeg  84.4638 -0.002796 4.15356
LeftFoot  -5.76092 0.569104 -10.9451
LeftToes  -3.90176e-010 -2.48536e-010 1.05482e-011
